<svg width="1661" height="998" xmlns="http://www.w3.org/2000/svg" xmlns:xlink="http://www.w3.org/1999/xlink" xml:space="preserve" overflow="hidden"><defs><clipPath id="clip0"><rect x="1827" y="1246" width="1661" height="998"/></clipPath></defs><g clip-path="url(#clip0)" transform="translate(-1827 -1246)"><rect x="1828" y="1247" width="1658" height="995" fill="#FFFFFF"/><g><path d="M2066.5 1909.56 3435.5 1909.56M2066.5 1786.56 3435.5 1786.56M2066.5 1664.55 3435.5 1664.55M2066.5 1542.55 3435.5 1542.55M2066.5 1419.55 3435.5 1419.55M2066.5 1297.5 3435.5 1297.5" stroke="#D9D9D9" stroke-width="3.4375" stroke-linejoin="round" stroke-miterlimit="10" fill="none"/></g><g><path d="M2132.07 1996.07 2192.07 1996.07 2192.07 2032 2132.07 2032ZM2474.08 2009.07 2534.08 2009.07 2534.08 2032 2474.08 2032ZM2817.09 1986.07 2876.09 1986.07 2876.09 2032 2817.09 2032ZM3159.1 1997.07 3219.11 1997.07 3219.11 2032 3159.1 2032Z" fill="#E97132"/></g><g><path d="M2208.07 1360.04 2267.07 1360.04 2267.07 2032 2208.07 2032ZM2550.08 1378.05 2610.09 1378.05 2610.09 2032 2550.08 2032ZM2892.09 1392.05 2952.1 1392.05 2952.1 2032 2892.09 2032ZM3235.11 1520.05 3295.11 1520.05 3295.11 2032 3235.11 2032Z" fill="#0F9ED5"/></g><g><path d="M2284.07 2010.07 2343.08 2010.07 2343.08 2032 2284.07 2032ZM2626.09 2006.07 2686.09 2006.07 2686.09 2032 2626.09 2032ZM2968.1 2008.07 3028.1 2008.07 3028.1 2032 2968.1 2032ZM3311.11 2011.07 3370.11 2011.07 3370.11 2032 3311.11 2032Z" fill="#4EA72E"/></g><g><path d="M2066.5 2031.5 3435.5 2031.5" stroke="#D9D9D9" stroke-width="3.4375" stroke-linejoin="round" stroke-miterlimit="10" fill="none" fill-rule="evenodd"/></g><g><text fill="#595959" font-family="Aptos Narrow,Aptos Narrow_MSFontService,sans-serif" font-weight="400" font-stretch="semi-condensed" font-size="41" transform="matrix(1 0 0 1 1954.98 2043)">0.00</text></g><g><text fill="#595959" font-family="Aptos Narrow,Aptos Narrow_MSFontService,sans-serif" font-weight="400" font-stretch="semi-condensed" font-size="41" transform="matrix(1 0 0 1 1954.98 1921)">0.05</text></g><g><text fill="#595959" font-family="Aptos Narrow,Aptos Narrow_MSFontService,sans-serif" font-weight="400" font-stretch="semi-condensed" font-size="41" transform="matrix(1 0 0 1 1954.98 1798)">0.10</text></g><g><text fill="#595959" font-family="Aptos Narrow,Aptos Narrow_MSFontService,sans-serif" font-weight="400" font-stretch="semi-condensed" font-size="41" transform="matrix(1 0 0 1 1954.98 1676)">0.15</text></g><g><text fill="#595959" font-family="Aptos Narrow,Aptos Narrow_MSFontService,sans-serif" font-weight="400" font-stretch="semi-condensed" font-size="41" transform="matrix(1 0 0 1 1954.98 1554)">0.20</text></g><g><text fill="#595959" font-family="Aptos Narrow,Aptos Narrow_MSFontService,sans-serif" font-weight="400" font-stretch="semi-condensed" font-size="41" transform="matrix(1 0 0 1 1954.98 1431)">0.25</text></g><g><text fill="#595959" font-family="Aptos Narrow,Aptos Narrow_MSFontService,sans-serif" font-weight="400" font-stretch="semi-condensed" font-size="41" transform="matrix(1 0 0 1 1954.98 1309)">0.30</text></g><g><text fill="#595959" font-family="Aptos Narrow,Aptos Narrow_MSFontService,sans-serif" font-weight="400" font-stretch="semi-condensed" font-size="41" transform="matrix(1 0 0 1 2168.66 2096)">2021-22</text></g><g><text fill="#595959" font-family="Aptos Narrow,Aptos Narrow_MSFontService,sans-serif" font-weight="400" font-stretch="semi-condensed" font-size="41" transform="matrix(1 0 0 1 2511.03 2096)">2022-23</text></g><g><text fill="#595959" font-family="Aptos Narrow,Aptos Narrow_MSFontService,sans-serif" font-weight="400" font-stretch="semi-condensed" font-size="41" transform="matrix(1 0 0 1 2853.39 2096)">2023-24</text></g><g><text fill="#595959" font-family="Aptos Narrow,Aptos Narrow_MSFontService,sans-serif" font-weight="400" font-stretch="semi-condensed" font-size="41" transform="matrix(1 0 0 1 3195.76 2096)">2024-25</text></g><g><text fill="#595959" font-family="Aptos Narrow,Aptos Narrow_MSFontService,sans-serif" font-weight="400" font-stretch="semi-condensed" font-size="46" transform="matrix(6.12323e-17 -1 1 6.12323e-17 1928.29 1959)">Scope 1 &amp; 2 emissions (MtCO</text></g><g><text fill="#595959" font-family="Aptos Narrow,Aptos Narrow_MSFontService,sans-serif" font-weight="400" font-stretch="semi-condensed" font-size="31" transform="matrix(6.12323e-17 -1 1 6.12323e-17 1938.28 1422)">2</text></g><g><text fill="#595959" font-family="Aptos Narrow,Aptos Narrow_MSFontService,sans-serif" font-weight="400" font-stretch="semi-condensed" font-size="46" transform="matrix(6.12323e-17 -1 1 6.12323e-17 1928.29 1406)">e)</text></g><g><rect x="2465" y="2165" width="23" height="23" fill="#E97132"/></g><g><text fill="#595959" font-family="Aptos Narrow,Aptos Narrow_MSFontService,sans-serif" font-weight="400" font-stretch="semi-condensed" font-size="41" transform="matrix(1 0 0 1 2497.17 2188)">SPT</text></g><g><rect x="2590" y="2165" width="22.9998" height="23" fill="#0F9ED5"/></g><g><text fill="#595959" font-family="Aptos Narrow,Aptos Narrow_MSFontService,sans-serif" font-weight="400" font-stretch="semi-condensed" font-size="41" transform="matrix(1 0 0 1 2622.52 2188)">NGET</text></g><g><rect x="2747" y="2165" width="22" height="23" fill="#4EA72E"/></g><g><text fill="#595959" font-family="Aptos Narrow,Aptos Narrow_MSFontService,sans-serif" font-weight="400" font-stretch="semi-condensed" font-size="41" transform="matrix(1 0 0 1 2778.89 2188)">SHET</text></g><rect x="1828.5" y="1247.5" width="1658" height="995" stroke="#D9D9D9" stroke-width="3.4375" stroke-linejoin="round" stroke-miterlimit="10" fill="none"/></g></svg>