<svg width="1661" height="993" xmlns="http://www.w3.org/2000/svg" xmlns:xlink="http://www.w3.org/1999/xlink" xml:space="preserve" overflow="hidden"><defs><clipPath id="clip0"><rect x="1623" y="124" width="1661" height="993"/></clipPath></defs><g clip-path="url(#clip0)" transform="translate(-1623 -124)"><rect x="1624" y="125" width="1658" height="990" fill="#FFFFFF"/><g><path d="M1883.5 812.527 3231.5 812.527M1883.5 721.524 3231.5 721.524M1883.5 630.521 3231.5 630.521M1883.5 539.518 3231.5 539.518M1883.5 448.515 3231.5 448.515M1883.5 357.512 3231.5 357.512M1883.5 266.509 3231.5 266.509M1883.5 175.5 3231.5 175.5" stroke="#D9D9D9" stroke-width="3.4375" stroke-linejoin="round" stroke-miterlimit="10" fill="none"/></g><g><path d="M1948.06 903 2007.07 903 2007.07 904 1948.06 904ZM2622.09 737.024 2681.09 737.024 2681.09 904 2622.09 904ZM2959.1 853.028 3018.1 853.028 3018.1 904 2959.1 904Z" fill="#E97132"/></g><g><path d="M2022.07 855.028 2081.07 855.028 2081.07 904 2022.07 904ZM2360.08 894.029 2418.08 894.029 2418.08 904 2360.08 904ZM3034.1 250.008 3093.1 250.008 3093.1 904 3034.1 904Z" fill="#0F9ED5"/></g><g><path d="M2771.09 894.029 2830.09 894.029 2830.09 904 2771.09 904ZM3109.1 895.029 3167.1 895.029 3167.1 904 3109.1 904Z" fill="#4EA72E"/></g><g><path d="M1883.5 903.5 3231.5 903.5" stroke="#D9D9D9" stroke-width="3.4375" stroke-linejoin="round" stroke-miterlimit="10" fill="none" fill-rule="evenodd"/></g><g><text fill="#595959" font-family="Aptos Narrow,Aptos Narrow_MSFontService,sans-serif" font-weight="400" font-stretch="semi-condensed" font-size="41" transform="matrix(1 0 0 1 1792.78 915)">0.0</text></g><g><text fill="#595959" font-family="Aptos Narrow,Aptos Narrow_MSFontService,sans-serif" font-weight="400" font-stretch="semi-condensed" font-size="41" transform="matrix(1 0 0 1 1771.88 824)">50.0</text></g><g><text fill="#595959" font-family="Aptos Narrow,Aptos Narrow_MSFontService,sans-serif" font-weight="400" font-stretch="semi-condensed" font-size="41" transform="matrix(1 0 0 1 1750.98 733)">100.0</text></g><g><text fill="#595959" font-family="Aptos Narrow,Aptos Narrow_MSFontService,sans-serif" font-weight="400" font-stretch="semi-condensed" font-size="41" transform="matrix(1 0 0 1 1750.98 642)">150.0</text></g><g><text fill="#595959" font-family="Aptos Narrow,Aptos Narrow_MSFontService,sans-serif" font-weight="400" font-stretch="semi-condensed" font-size="41" transform="matrix(1 0 0 1 1750.98 551)">200.0</text></g><g><text fill="#595959" font-family="Aptos Narrow,Aptos Narrow_MSFontService,sans-serif" font-weight="400" font-stretch="semi-condensed" font-size="41" transform="matrix(1 0 0 1 1750.98 460)">250.0</text></g><g><text fill="#595959" font-family="Aptos Narrow,Aptos Narrow_MSFontService,sans-serif" font-weight="400" font-stretch="semi-condensed" font-size="41" transform="matrix(1 0 0 1 1750.98 369)">300.0</text></g><g><text fill="#595959" font-family="Aptos Narrow,Aptos Narrow_MSFontService,sans-serif" font-weight="400" font-stretch="semi-condensed" font-size="41" transform="matrix(1 0 0 1 1750.98 278)">350.0</text></g><g><text fill="#595959" font-family="Aptos Narrow,Aptos Narrow_MSFontService,sans-serif" font-weight="400" font-stretch="semi-condensed" font-size="41" transform="matrix(1 0 0 1 1750.98 187)">400.0</text></g><g><text fill="#595959" font-family="Aptos Narrow,Aptos Narrow_MSFontService,sans-serif" font-weight="400" font-stretch="semi-condensed" font-size="41" transform="matrix(1 0 0 1 1982.94 969)">2021-22</text></g><g><text fill="#595959" font-family="Aptos Narrow,Aptos Narrow_MSFontService,sans-serif" font-weight="400" font-stretch="semi-condensed" font-size="41" transform="matrix(1 0 0 1 2320.08 969)">2022-23</text></g><g><text fill="#595959" font-family="Aptos Narrow,Aptos Narrow_MSFontService,sans-serif" font-weight="400" font-stretch="semi-condensed" font-size="41" transform="matrix(1 0 0 1 2657.22 969)">2023-24</text></g><g><text fill="#595959" font-family="Aptos Narrow,Aptos Narrow_MSFontService,sans-serif" font-weight="400" font-stretch="semi-condensed" font-size="41" transform="matrix(1 0 0 1 2994.36 969)">2024-25</text></g><g><text fill="#595959" font-family="Aptos Narrow,Aptos Narrow_MSFontService,sans-serif" font-weight="400" font-stretch="semi-condensed" font-size="46" transform="matrix(6.12323e-17 -1 1 6.12323e-17 1724.28 851)">Annual energy not supplied (MWh)</text></g><g><rect x="2261" y="1037" width="23" height="23" fill="#E97132"/></g><g><text fill="#595959" font-family="Aptos Narrow,Aptos Narrow_MSFontService,sans-serif" font-weight="400" font-stretch="semi-condensed" font-size="41" transform="matrix(1 0 0 1 2293.16 1060)">SPT</text></g><g><rect x="2386" y="1037" width="23" height="23" fill="#0F9ED5"/></g><g><text fill="#595959" font-family="Aptos Narrow,Aptos Narrow_MSFontService,sans-serif" font-weight="400" font-stretch="semi-condensed" font-size="41" transform="matrix(1 0 0 1 2418.51 1060)">NGET</text></g><g><rect x="2543" y="1037" width="22" height="23" fill="#4EA72E"/></g><g><text fill="#595959" font-family="Aptos Narrow,Aptos Narrow_MSFontService,sans-serif" font-weight="400" font-stretch="semi-condensed" font-size="41" transform="matrix(1 0 0 1 2574.88 1060)">SHET</text></g><rect x="1624.5" y="125.5" width="1658" height="990" stroke="#D9D9D9" stroke-width="3.4375" stroke-linejoin="round" stroke-miterlimit="10" fill="none"/></g></svg>