<svg width="1653" height="993" xmlns="http://www.w3.org/2000/svg" xmlns:xlink="http://www.w3.org/1999/xlink" xml:space="preserve" overflow="hidden"><defs><clipPath id="clip0"><rect x="2691" y="6212" width="1653" height="993"/></clipPath></defs><g clip-path="url(#clip0)" transform="translate(-2691 -6212)"><rect x="2692" y="6213" width="1650" height="990" fill="#FFFFFF"/><g><path d="M2898.5 7048.5 4291.5 7048.5M2898.5 6935.73 4291.5 6935.73M2898.5 6823.72 4291.5 6823.72M2898.5 6711.72 4291.5 6711.72M2898.5 6599.72 4291.5 6599.72M2898.5 6487.71 4291.5 6487.71M2898.5 6375.71 4291.5 6375.71M2898.5 6263.5 4291.5 6263.5" stroke="#D9D9D9" stroke-width="3.4375" stroke-linejoin="round" stroke-miterlimit="10" fill="none"/></g><g><path d="M3834.13 6665.22 4052.13 6665.22 4052.13 7048 3834.13 7048Z" fill="#156082"/></g><g><path d="M3834.13 6311.21 4052.13 6311.21 4052.13 6665.22 3834.13 6665.22Z" fill="#E97132"/></g><g><path d="M3138.1 6414.21 3356.11 6414.21 3356.11 7048 3138.1 7048Z" fill="#196B24"/></g><g><text fill="#595959" font-family="Aptos Narrow,Aptos Narrow_MSFontService,sans-serif" font-weight="400" font-stretch="semi-condensed" font-size="41" transform="matrix(1 0 0 1 2839.71 7060)">0</text></g><g><text fill="#595959" font-family="Aptos Narrow,Aptos Narrow_MSFontService,sans-serif" font-weight="400" font-stretch="semi-condensed" font-size="41" transform="matrix(1 0 0 1 2839.71 6948)">2</text></g><g><text fill="#595959" font-family="Aptos Narrow,Aptos Narrow_MSFontService,sans-serif" font-weight="400" font-stretch="semi-condensed" font-size="41" transform="matrix(1 0 0 1 2839.71 6836)">4</text></g><g><text fill="#595959" font-family="Aptos Narrow,Aptos Narrow_MSFontService,sans-serif" font-weight="400" font-stretch="semi-condensed" font-size="41" transform="matrix(1 0 0 1 2839.71 6724)">6</text></g><g><text fill="#595959" font-family="Aptos Narrow,Aptos Narrow_MSFontService,sans-serif" font-weight="400" font-stretch="semi-condensed" font-size="41" transform="matrix(1 0 0 1 2839.71 6612)">8</text></g><g><text fill="#595959" font-family="Aptos Narrow,Aptos Narrow_MSFontService,sans-serif" font-weight="400" font-stretch="semi-condensed" font-size="41" transform="matrix(1 0 0 1 2818.81 6499)">10</text></g><g><text fill="#595959" font-family="Aptos Narrow,Aptos Narrow_MSFontService,sans-serif" font-weight="400" font-stretch="semi-condensed" font-size="41" transform="matrix(1 0 0 1 2818.81 6387)">12</text></g><g><text fill="#595959" font-family="Aptos Narrow,Aptos Narrow_MSFontService,sans-serif" font-weight="400" font-stretch="semi-condensed" font-size="41" transform="matrix(1 0 0 1 2818.81 6275)">14</text></g><g><text fill="#595959" font-family="Aptos Narrow,Aptos Narrow_MSFontService,sans-serif" font-weight="400" font-stretch="semi-condensed" font-size="46" transform="matrix(6.12323e-17 -1 1 6.12323e-17 2792.11 7006)">Mt of waste from UK households, 2022</text></g><g><rect x="2910" y="7126" width="23" height="23" fill="#156082"/></g><g><text fill="#595959" font-family="Aptos Narrow,Aptos Narrow_MSFontService,sans-serif" font-weight="400" font-stretch="semi-condensed" font-size="41" transform="matrix(1 0 0 1 2942.21 7149)">Landfill: Non-biodegradable</text></g><g><rect x="3477" y="7126" width="23" height="23" fill="#E97132"/></g><g><text fill="#595959" font-family="Aptos Narrow,Aptos Narrow_MSFontService,sans-serif" font-weight="400" font-stretch="semi-condensed" font-size="41" transform="matrix(1 0 0 1 3509.34 7149)">Landfill: Biodegradable</text></g><g><rect x="3957" y="7126" width="23" height="23" fill="#196B24"/></g><g><text fill="#595959" font-family="Aptos Narrow,Aptos Narrow_MSFontService,sans-serif" font-weight="400" font-stretch="semi-condensed" font-size="41" transform="matrix(1 0 0 1 3989.41 7149)">Recycled</text></g><rect x="2692.5" y="6213.5" width="1650" height="990" stroke="#D9D9D9" stroke-width="3.4375" stroke-linejoin="round" stroke-miterlimit="10" fill="none"/></g></svg>