<svg width="1657" height="993" xmlns="http://www.w3.org/2000/svg" xmlns:xlink="http://www.w3.org/1999/xlink" xml:space="preserve" overflow="hidden"><defs><clipPath id="clip0"><rect x="2152" y="8326" width="1657" height="993"/></clipPath></defs><g clip-path="url(#clip0)" transform="translate(-2152 -8326)"><rect x="2153" y="8327" width="1654" height="990" fill="#FFFFFF"/><g><path d="M2980.45 8433.16C3037.7 8433.16 3094.01 8447.75 3144.05 8475.56L2980.45 8770Z" stroke="#FFFFFF" stroke-width="6.875" stroke-linejoin="round" stroke-miterlimit="10" fill="#156082" fill-rule="evenodd"/></g><g><path d="M3144.05 8475.56C3306.67 8565.91 3365.25 8770.99 3274.89 8933.6 3196.11 9075.38 3027.47 9140.89 2873.64 9089.45L2980.45 8770Z" stroke="#FFFFFF" stroke-width="6.875" stroke-linejoin="round" stroke-miterlimit="10" fill="#E97132" fill-rule="evenodd"/></g><g><path d="M2873.64 9089.45C2871.09 9088.6 2868.56 9087.72 2866.04 9086.81L2980.45 8770Z" stroke="#FFFFFF" stroke-width="6.875" stroke-linejoin="round" stroke-miterlimit="10" fill="#196B24" fill-rule="evenodd"/></g><g><path d="M2866.04 9086.81C2691.07 9023.62 2600.45 8830.56 2663.64 8655.59 2704.08 8543.6 2800.63 8461.28 2917.61 8439.07L2980.45 8770Z" stroke="#FFFFFF" stroke-width="6.875" stroke-linejoin="round" stroke-miterlimit="10" fill="#0F9ED5" fill-rule="evenodd"/></g><g><path d="M2917.61 8439.07C2938.32 8435.14 2959.36 8433.16 2980.45 8433.16L2980.45 8770Z" stroke="#FFFFFF" stroke-width="6.875" stroke-linejoin="round" stroke-miterlimit="10" fill="#A02B93" fill-rule="evenodd"/></g><g><text fill="#404040" font-family="Aptos Narrow,Aptos Narrow_MSFontService,sans-serif" font-weight="400" font-stretch="semi-condensed" font-size="41" transform="matrix(1 0 0 1 3072.55 8413)">2.11</text></g><g><text fill="#404040" font-family="Aptos Narrow,Aptos Narrow_MSFontService,sans-serif" font-weight="400" font-stretch="semi-condensed" font-size="41" transform="matrix(1 0 0 1 3319.34 8939)">12.29</text></g><g><text fill="#404040" font-family="Aptos Narrow,Aptos Narrow_MSFontService,sans-serif" font-weight="400" font-stretch="semi-condensed" font-size="41" transform="matrix(1 0 0 1 2776.03 9147)">0.10</text></g><g><text fill="#404040" font-family="Aptos Narrow,Aptos Narrow_MSFontService,sans-serif" font-weight="400" font-stretch="semi-condensed" font-size="41" transform="matrix(1 0 0 1 2518.32 8753)">10.84</text></g><g><text fill="#404040" font-family="Aptos Narrow,Aptos Narrow_MSFontService,sans-serif" font-weight="400" font-stretch="semi-condensed" font-size="41" transform="matrix(1 0 0 1 2896.04 8403)">0.78</text></g><g><rect x="2267.5" y="9239.5" width="22" height="23" stroke="#FFFFFF" stroke-width="6.875" stroke-linejoin="round" stroke-miterlimit="10" fill="#156082"/></g><g><text fill="#595959" font-family="Aptos Narrow,Aptos Narrow_MSFontService,sans-serif" font-weight="400" font-stretch="semi-condensed" font-size="41" transform="matrix(1 0 0 1 2299.45 9263)">Landfilled</text></g><g><rect x="2499.5" y="9239.5" width="23" height="23" stroke="#FFFFFF" stroke-width="6.875" stroke-linejoin="round" stroke-miterlimit="10" fill="#E97132"/></g><g><text fill="#595959" font-family="Aptos Narrow,Aptos Narrow_MSFontService,sans-serif" font-weight="400" font-stretch="semi-condensed" font-size="41" transform="matrix(1 0 0 1 2531.72 9263)">Incineration with EfW</text></g><g><rect x="2908.5" y="9239.5" width="23" height="23" stroke="#FFFFFF" stroke-width="6.875" stroke-linejoin="round" stroke-miterlimit="10" fill="#196B24"/></g><g><text fill="#595959" font-family="Aptos Narrow,Aptos Narrow_MSFontService,sans-serif" font-weight="400" font-stretch="semi-condensed" font-size="41" transform="matrix(1 0 0 1 2941.05 9263)">Incineration without EfW</text></g><g><rect x="3372.5" y="9239.5" width="22" height="23" stroke="#FFFFFF" stroke-width="6.875" stroke-linejoin="round" stroke-miterlimit="10" fill="#0F9ED5"/></g><g><text fill="#595959" font-family="Aptos Narrow,Aptos Narrow_MSFontService,sans-serif" font-weight="400" font-stretch="semi-condensed" font-size="41" transform="matrix(1 0 0 1 3404.46 9263)">Recycled</text></g><g><rect x="3584.5" y="9239.5" width="23" height="23" stroke="#FFFFFF" stroke-width="6.875" stroke-linejoin="round" stroke-miterlimit="10" fill="#A02B93"/></g><g><text fill="#595959" font-family="Aptos Narrow,Aptos Narrow_MSFontService,sans-serif" font-weight="400" font-stretch="semi-condensed" font-size="41" transform="matrix(1 0 0 1 3616.79 9263)">Other</text></g><rect x="2153.5" y="8327.5" width="1654" height="990" stroke="#D9D9D9" stroke-width="3.4375" stroke-linejoin="round" stroke-miterlimit="10" fill="none"/></g></svg>