<svg width="1657" height="993" xmlns="http://www.w3.org/2000/svg" xmlns:xlink="http://www.w3.org/1999/xlink" xml:space="preserve" overflow="hidden"><defs><clipPath id="clip0"><rect x="1919" y="7890" width="1657" height="993"/></clipPath></defs><g clip-path="url(#clip0)" transform="translate(-1919 -7890)"><rect x="1920" y="7891" width="1654" height="990" fill="#FFFFFF"/><g><path d="M2747.3 7996.74C2804.55 7996.74 2860.86 8011.34 2910.9 8039.14L2747.3 8333.58Z" stroke="#FFFFFF" stroke-width="6.875" stroke-linejoin="round" stroke-miterlimit="10" fill="#156082" fill-rule="evenodd"/></g><g><path d="M2910.9 8039.14C3073.52 8129.5 3132.09 8334.57 3041.74 8497.19 2962.96 8638.97 2794.31 8704.47 2640.48 8653.04L2747.3 8333.58Z" stroke="#FFFFFF" stroke-width="6.875" stroke-linejoin="round" stroke-miterlimit="10" fill="#E97132" fill-rule="evenodd"/></g><g><path d="M2640.48 8653.04C2637.94 8652.19 2635.41 8651.31 2632.89 8650.4L2747.3 8333.58Z" stroke="#FFFFFF" stroke-width="6.875" stroke-linejoin="round" stroke-miterlimit="10" fill="#196B24" fill-rule="evenodd"/></g><g><path d="M2632.89 8650.4C2457.92 8587.21 2367.3 8394.14 2430.48 8219.17 2470.92 8107.19 2567.48 8024.87 2684.45 8002.66L2747.3 8333.58Z" stroke="#FFFFFF" stroke-width="6.875" stroke-linejoin="round" stroke-miterlimit="10" fill="#0F9ED5" fill-rule="evenodd"/></g><g><path d="M2684.45 8002.66C2705.17 7998.72 2726.21 7996.74 2747.3 7996.74L2747.3 8333.58Z" stroke="#FFFFFF" stroke-width="6.875" stroke-linejoin="round" stroke-miterlimit="10" fill="#A02B93" fill-rule="evenodd"/></g><g><text fill="#404040" font-family="Aptos Narrow,Aptos Narrow_MSFontService,sans-serif" font-weight="400" font-stretch="semi-condensed" font-size="41" transform="matrix(1 0 0 1 2839.4 7976)">0.21</text></g><g><text fill="#404040" font-family="Aptos Narrow,Aptos Narrow_MSFontService,sans-serif" font-weight="400" font-stretch="semi-condensed" font-size="41" transform="matrix(1 0 0 1 3085.97 8503)">1.23</text></g><g><text fill="#404040" font-family="Aptos Narrow,Aptos Narrow_MSFontService,sans-serif" font-weight="400" font-stretch="semi-condensed" font-size="41" transform="matrix(1 0 0 1 2542.88 8710)">0.01</text></g><g><text fill="#404040" font-family="Aptos Narrow,Aptos Narrow_MSFontService,sans-serif" font-weight="400" font-stretch="semi-condensed" font-size="41" transform="matrix(1 0 0 1 2306.28 8317)">1.08</text></g><g><text fill="#404040" font-family="Aptos Narrow,Aptos Narrow_MSFontService,sans-serif" font-weight="400" font-stretch="semi-condensed" font-size="41" transform="matrix(1 0 0 1 2662.89 7967)">0.08</text></g><g><rect x="2034.5" y="8803.5" width="21.9999" height="23" stroke="#FFFFFF" stroke-width="6.875" stroke-linejoin="round" stroke-miterlimit="10" fill="#156082"/></g><g><text fill="#595959" font-family="Aptos Narrow,Aptos Narrow_MSFontService,sans-serif" font-weight="400" font-stretch="semi-condensed" font-size="41" transform="matrix(1 0 0 1 2066.3 8826)">Landfilled</text></g><g><rect x="2266.5" y="8803.5" width="22" height="23" stroke="#FFFFFF" stroke-width="6.875" stroke-linejoin="round" stroke-miterlimit="10" fill="#E97132"/></g><g><text fill="#595959" font-family="Aptos Narrow,Aptos Narrow_MSFontService,sans-serif" font-weight="400" font-stretch="semi-condensed" font-size="41" transform="matrix(1 0 0 1 2298.57 8826)">Incineration with EfW</text></g><g><rect x="2675.5" y="8803.5" width="23" height="23" stroke="#FFFFFF" stroke-width="6.875" stroke-linejoin="round" stroke-miterlimit="10" fill="#196B24"/></g><g><text fill="#595959" font-family="Aptos Narrow,Aptos Narrow_MSFontService,sans-serif" font-weight="400" font-stretch="semi-condensed" font-size="41" transform="matrix(1 0 0 1 2707.9 8826)">Incineration without EfW</text></g><g><rect x="3139.5" y="8803.5" width="22" height="23" stroke="#FFFFFF" stroke-width="6.875" stroke-linejoin="round" stroke-miterlimit="10" fill="#0F9ED5"/></g><g><text fill="#595959" font-family="Aptos Narrow,Aptos Narrow_MSFontService,sans-serif" font-weight="400" font-stretch="semi-condensed" font-size="41" transform="matrix(1 0 0 1 3171.31 8826)">Recycled</text></g><g><rect x="3351.5" y="8803.5" width="23" height="23" stroke="#FFFFFF" stroke-width="6.875" stroke-linejoin="round" stroke-miterlimit="10" fill="#A02B93"/></g><g><text fill="#595959" font-family="Aptos Narrow,Aptos Narrow_MSFontService,sans-serif" font-weight="400" font-stretch="semi-condensed" font-size="41" transform="matrix(1 0 0 1 3383.64 8826)">Other</text></g><rect x="1920.5" y="7891.5" width="1654" height="990" stroke="#D9D9D9" stroke-width="3.4375" stroke-linejoin="round" stroke-miterlimit="10" fill="none"/></g></svg>