<svg width="1653" height="993" xmlns="http://www.w3.org/2000/svg" xmlns:xlink="http://www.w3.org/1999/xlink" xml:space="preserve" overflow="hidden"><defs><clipPath id="clip0"><rect x="2285" y="7508" width="1653" height="993"/></clipPath></defs><g clip-path="url(#clip0)" transform="translate(-2285 -7508)"><rect x="2286" y="7509" width="1650" height="990" fill="#FFFFFF"/><g><path d="M3110.94 7614.83C3168.19 7614.83 3224.5 7629.42 3274.54 7657.23L3110.94 7951.66Z" stroke="#FFFFFF" stroke-width="6.875" stroke-linejoin="round" stroke-miterlimit="10" fill="#E97132" fill-rule="evenodd"/></g><g><path d="M3274.54 7657.23C3437.16 7747.58 3495.73 7952.65 3405.38 8115.27 3326.59 8257.05 3157.95 8322.55 3004.12 8271.12L3110.94 7951.66Z" stroke="#FFFFFF" stroke-width="6.875" stroke-linejoin="round" stroke-miterlimit="10" fill="#0F9ED5" fill-rule="evenodd"/></g><g><path d="M3004.12 8271.12C3001.58 8270.27 2999.05 8269.39 2996.53 8268.48L3110.94 7951.66Z" stroke="#FFFFFF" stroke-width="6.875" stroke-linejoin="round" stroke-miterlimit="10" fill="#4EA72E" fill-rule="evenodd"/></g><g><path d="M2996.53 8268.48C2821.56 8205.29 2730.94 8012.23 2794.12 7837.25 2834.56 7725.27 2931.12 7642.95 3048.09 7620.74L3110.94 7951.66Z" stroke="#FFFFFF" stroke-width="6.875" stroke-linejoin="round" stroke-miterlimit="10" fill="#994010" fill-rule="evenodd"/></g><g><path d="M3048.09 7620.74C3068.81 7616.81 3089.85 7614.82 3110.94 7614.82L3110.94 7951.66Z" stroke="#FFFFFF" stroke-width="6.875" stroke-linejoin="round" stroke-miterlimit="10" fill="#095F80" fill-rule="evenodd"/></g><g><text fill="#404040" font-family="Aptos Narrow,Aptos Narrow_MSFontService,sans-serif" font-weight="400" font-stretch="semi-condensed" font-size="41" transform="matrix(1 0 0 1 3193.28 7594)">2,108,525</text></g><g><text fill="#404040" font-family="Aptos Narrow,Aptos Narrow_MSFontService,sans-serif" font-weight="400" font-stretch="semi-condensed" font-size="41" transform="matrix(1 0 0 1 3450.77 8121)">12,293,991</text></g><g><text fill="#404040" font-family="Aptos Narrow,Aptos Narrow_MSFontService,sans-serif" font-weight="400" font-stretch="semi-condensed" font-size="41" transform="matrix(1 0 0 1 2864.3 8328)">99,258</text></g><g><text fill="#404040" font-family="Aptos Narrow,Aptos Narrow_MSFontService,sans-serif" font-weight="400" font-stretch="semi-condensed" font-size="41" transform="matrix(1 0 0 1 2553.54 7935)">10,840,019</text></g><g><text fill="#404040" font-family="Aptos Narrow,Aptos Narrow_MSFontService,sans-serif" font-weight="400" font-stretch="semi-condensed" font-size="41" transform="matrix(1 0 0 1 2986.15 7585)">780,210</text></g><g><rect x="2398.5" y="8421.5" width="23" height="23" stroke="#FFFFFF" stroke-width="6.875" stroke-linejoin="round" stroke-miterlimit="10" fill="#E97132"/></g><g><text fill="#595959" font-family="Aptos Narrow,Aptos Narrow_MSFontService,sans-serif" font-weight="400" font-stretch="semi-condensed" font-size="41" transform="matrix(1 0 0 1 2431.11 8444)">Landfilled</text></g><g><rect x="2630.5" y="8421.5" width="23" height="23" stroke="#FFFFFF" stroke-width="6.875" stroke-linejoin="round" stroke-miterlimit="10" fill="#0F9ED5"/></g><g><text fill="#595959" font-family="Aptos Narrow,Aptos Narrow_MSFontService,sans-serif" font-weight="400" font-stretch="semi-condensed" font-size="41" transform="matrix(1 0 0 1 2662.79 8444)">Incineration with EfW</text></g><g><rect x="3039.5" y="8421.5" width="22" height="23" stroke="#FFFFFF" stroke-width="6.875" stroke-linejoin="round" stroke-miterlimit="10" fill="#4EA72E"/></g><g><text fill="#595959" font-family="Aptos Narrow,Aptos Narrow_MSFontService,sans-serif" font-weight="400" font-stretch="semi-condensed" font-size="41" transform="matrix(1 0 0 1 3071.53 8444)">Incineration without EfW</text></g><g><rect x="3502.5" y="8421.5" width="22" height="23" stroke="#FFFFFF" stroke-width="6.875" stroke-linejoin="round" stroke-miterlimit="10" fill="#994010"/></g><g><text fill="#595959" font-family="Aptos Narrow,Aptos Narrow_MSFontService,sans-serif" font-weight="400" font-stretch="semi-condensed" font-size="41" transform="matrix(1 0 0 1 3534.36 8444)">Recycled</text></g><g><rect x="3713.5" y="8421.5" width="23" height="23" stroke="#FFFFFF" stroke-width="6.875" stroke-linejoin="round" stroke-miterlimit="10" fill="#095F80"/></g><g><text fill="#595959" font-family="Aptos Narrow,Aptos Narrow_MSFontService,sans-serif" font-weight="400" font-stretch="semi-condensed" font-size="41" transform="matrix(1 0 0 1 3746.1 8444)">Other</text></g><rect x="2286.5" y="7509.5" width="1650" height="990" stroke="#D9D9D9" stroke-width="3.4375" stroke-linejoin="round" stroke-miterlimit="10" fill="none"/></g></svg>