<svg width="1647" height="989" xmlns="http://www.w3.org/2000/svg" xmlns:xlink="http://www.w3.org/1999/xlink" xml:space="preserve" overflow="hidden"><defs><clipPath id="clip0"><rect x="1758" y="2339" width="1647" height="989"/></clipPath></defs><g clip-path="url(#clip0)" transform="translate(-1758 -2339)"><rect x="1759" y="2340" width="1644" height="986" fill="#FFFFFF"/><g><path d="M2049.5 3024.6 3352.5 3024.6M2049.5 2933.6 3352.5 2933.6M2049.5 2843.59 3352.5 2843.59M2049.5 2752.59 3352.5 2752.59M2049.5 2662.59 3352.5 2662.59M2049.5 2571.58 3352.5 2571.58M2049.5 2480.58 3352.5 2480.58M2049.5 2390.5 3352.5 2390.5" stroke="#D9D9D9" stroke-width="3.4375" stroke-linejoin="round" stroke-miterlimit="10" fill="none"/></g><g><path d="M2112.07 2390 2169.07 2390 2169.07 3115 2112.07 3115ZM2438.08 2564.08 2495.08 2564.08 2495.08 3115 2438.08 3115ZM2763.09 2442.08 2820.09 2442.08 2820.09 3115 2763.09 3115ZM3089.1 2478.08 3146.1 2478.08 3146.1 3115 3089.1 3115Z" fill="#E97132"/></g><g><path d="M2184.07 2967.1 2241.07 2967.1 2241.07 3115 2184.07 3115ZM2510.08 2781.09 2567.08 2781.09 2567.08 3115 2510.08 3115ZM2836.09 2430.08 2892.09 2430.08 2892.09 3115 2836.09 3115ZM3161.1 2623.09 3218.11 2623.09 3218.11 3115 3161.1 3115Z" fill="#0F9ED5"/></g><g><path d="M2256.07 2390 2313.08 2390 2313.08 3115 2256.07 3115ZM2582.08 2390 2639.09 2390 2639.09 3115 2582.08 3115ZM2908.1 2390 2965.1 2390 2965.1 3115 2908.1 3115ZM3233.11 2390 3290.11 2390 3290.11 3115 3233.11 3115Z" fill="#4EA72E"/></g><g><path d="M2049.5 3114.5 3352.5 3114.5" stroke="#D9D9D9" stroke-width="3.4375" stroke-linejoin="round" stroke-miterlimit="10" fill="none" fill-rule="evenodd"/></g><g><text fill="#595959" font-family="Aptos Narrow,Aptos Narrow_MSFontService,sans-serif" font-weight="400" font-stretch="semi-condensed" font-size="41" transform="matrix(1 0 0 1 1907.04 3126)">96.0%</text></g><g><text fill="#595959" font-family="Aptos Narrow,Aptos Narrow_MSFontService,sans-serif" font-weight="400" font-stretch="semi-condensed" font-size="41" transform="matrix(1 0 0 1 1907.04 3036)">96.5%</text></g><g><text fill="#595959" font-family="Aptos Narrow,Aptos Narrow_MSFontService,sans-serif" font-weight="400" font-stretch="semi-condensed" font-size="41" transform="matrix(1 0 0 1 1907.04 2945)">97.0%</text></g><g><text fill="#595959" font-family="Aptos Narrow,Aptos Narrow_MSFontService,sans-serif" font-weight="400" font-stretch="semi-condensed" font-size="41" transform="matrix(1 0 0 1 1907.04 2855)">97.5%</text></g><g><text fill="#595959" font-family="Aptos Narrow,Aptos Narrow_MSFontService,sans-serif" font-weight="400" font-stretch="semi-condensed" font-size="41" transform="matrix(1 0 0 1 1907.04 2764)">98.0%</text></g><g><text fill="#595959" font-family="Aptos Narrow,Aptos Narrow_MSFontService,sans-serif" font-weight="400" font-stretch="semi-condensed" font-size="41" transform="matrix(1 0 0 1 1907.04 2674)">98.5%</text></g><g><text fill="#595959" font-family="Aptos Narrow,Aptos Narrow_MSFontService,sans-serif" font-weight="400" font-stretch="semi-condensed" font-size="41" transform="matrix(1 0 0 1 1907.04 2583)">99.0%</text></g><g><text fill="#595959" font-family="Aptos Narrow,Aptos Narrow_MSFontService,sans-serif" font-weight="400" font-stretch="semi-condensed" font-size="41" transform="matrix(1 0 0 1 1907.04 2493)">99.5%</text></g><g><text fill="#595959" font-family="Aptos Narrow,Aptos Narrow_MSFontService,sans-serif" font-weight="400" font-stretch="semi-condensed" font-size="41" transform="matrix(1 0 0 1 1886.14 2402)">100.0%</text></g><g><text fill="#595959" font-family="Aptos Narrow,Aptos Narrow_MSFontService,sans-serif" font-weight="400" font-stretch="semi-condensed" font-size="41" transform="matrix(1 0 0 1 2143.76 3180)">2021-22</text></g><g><text fill="#595959" font-family="Aptos Narrow,Aptos Narrow_MSFontService,sans-serif" font-weight="400" font-stretch="semi-condensed" font-size="41" transform="matrix(1 0 0 1 2469.44 3180)">2022-23</text></g><g><text fill="#595959" font-family="Aptos Narrow,Aptos Narrow_MSFontService,sans-serif" font-weight="400" font-stretch="semi-condensed" font-size="41" transform="matrix(1 0 0 1 2795.13 3180)">2023-24</text></g><g><text fill="#595959" font-family="Aptos Narrow,Aptos Narrow_MSFontService,sans-serif" font-weight="400" font-stretch="semi-condensed" font-size="41" transform="matrix(1 0 0 1 3120.82 3180)">2024-25</text></g><g><text fill="#595959" font-family="Aptos Narrow,Aptos Narrow_MSFontService,sans-serif" font-weight="400" font-stretch="semi-condensed" font-size="46" transform="matrix(6.12323e-17 -1 1 6.12323e-17 1859.44 3077)">Connection offers delivered on time</text></g><g><rect x="2389" y="3248" width="23" height="23" fill="#E97132"/></g><g><text fill="#595959" font-family="Aptos Narrow,Aptos Narrow_MSFontService,sans-serif" font-weight="400" font-stretch="semi-condensed" font-size="41" transform="matrix(1 0 0 1 2421.11 3271)">SPT</text></g><g><rect x="2514" y="3248" width="23" height="23" fill="#0F9ED5"/></g><g><text fill="#595959" font-family="Aptos Narrow,Aptos Narrow_MSFontService,sans-serif" font-weight="400" font-stretch="semi-condensed" font-size="41" transform="matrix(1 0 0 1 2546.46 3271)">NGET</text></g><g><rect x="2671" y="3248" width="22" height="23" fill="#4EA72E"/></g><g><text fill="#595959" font-family="Aptos Narrow,Aptos Narrow_MSFontService,sans-serif" font-weight="400" font-stretch="semi-condensed" font-size="41" transform="matrix(1 0 0 1 2702.83 3271)">SHET</text></g><rect x="1759.5" y="2340.5" width="1644" height="986" stroke="#D9D9D9" stroke-width="3.4375" stroke-linejoin="round" stroke-miterlimit="10" fill="none"/></g></svg>