<svg width="1662" height="999" xmlns="http://www.w3.org/2000/svg" xmlns:xlink="http://www.w3.org/1999/xlink" xml:space="preserve" overflow="hidden"><defs><clipPath id="clip0"><rect x="1844" y="6442" width="1662" height="999"/></clipPath></defs><g clip-path="url(#clip0)" transform="translate(-1844 -6442)"><rect x="1845" y="6443" width="1659" height="996" fill="#FFFFFF"/><g><path d="M2083.5 7154.73 3453.5 7154.73M2083.5 7081.73 3453.5 7081.73M2083.5 7007.73 3453.5 7007.73M2083.5 6934.73 3453.5 6934.73M2083.5 6860.73 3453.5 6860.73M2083.5 6787.72 3453.5 6787.72M2083.5 6713.72 3453.5 6713.72M2083.5 6640.72 3453.5 6640.72M2083.5 6567.72 3453.5 6567.72M2083.5 6493.5 3453.5 6493.5" stroke="#D9D9D9" stroke-width="3.4375" stroke-linejoin="round" stroke-miterlimit="10" fill="none"/></g><g><path d="M2149.07 6618.22 2209.07 6618.22 2209.07 7228 2149.07 7228ZM2491.08 6624.22 2551.08 6624.22 2551.08 7228 2491.08 7228ZM2834.09 6620.22 2893.09 6620.22 2893.09 7228 2834.09 7228ZM3176.1 6575.22 3236.11 6575.22 3236.11 7228 3176.1 7228Z" fill="#E97132"/></g><g><path d="M2225.07 6657.22 2285.07 6657.22 2285.07 7228 2225.07 7228ZM2567.08 6700.22 2627.09 6700.22 2627.09 7228 2567.08 7228ZM2910.1 6748.22 2969.1 6748.22 2969.1 7228 2910.1 7228ZM3252.11 6748.22 3312.11 6748.22 3312.11 7228 3252.11 7228Z" fill="#0F9ED5"/></g><g><path d="M2301.08 6630.22 2361.08 6630.22 2361.08 7228 2301.08 7228ZM2643.09 6594.22 2703.09 6594.22 2703.09 7228 2643.09 7228ZM2986.1 6593.22 3045.1 6593.22 3045.1 7228 2986.1 7228ZM3328.11 6590.22 3388.11 6590.22 3388.11 7228 3328.11 7228Z" fill="#4EA72E"/></g><g><path d="M2083.5 7228.5 3453.5 7228.5" stroke="#D9D9D9" stroke-width="3.4375" stroke-linejoin="round" stroke-miterlimit="10" fill="none" fill-rule="evenodd"/></g><g><text fill="#595959" font-family="Aptos Narrow,Aptos Narrow_MSFontService,sans-serif" font-weight="400" font-stretch="semi-condensed" font-size="41" transform="matrix(1 0 0 1 1993.07 7240)">0.0</text></g><g><text fill="#595959" font-family="Aptos Narrow,Aptos Narrow_MSFontService,sans-serif" font-weight="400" font-stretch="semi-condensed" font-size="41" transform="matrix(1 0 0 1 1993.07 7166)">1.0</text></g><g><text fill="#595959" font-family="Aptos Narrow,Aptos Narrow_MSFontService,sans-serif" font-weight="400" font-stretch="semi-condensed" font-size="41" transform="matrix(1 0 0 1 1993.07 7093)">2.0</text></g><g><text fill="#595959" font-family="Aptos Narrow,Aptos Narrow_MSFontService,sans-serif" font-weight="400" font-stretch="semi-condensed" font-size="41" transform="matrix(1 0 0 1 1993.07 7019)">3.0</text></g><g><text fill="#595959" font-family="Aptos Narrow,Aptos Narrow_MSFontService,sans-serif" font-weight="400" font-stretch="semi-condensed" font-size="41" transform="matrix(1 0 0 1 1993.07 6946)">4.0</text></g><g><text fill="#595959" font-family="Aptos Narrow,Aptos Narrow_MSFontService,sans-serif" font-weight="400" font-stretch="semi-condensed" font-size="41" transform="matrix(1 0 0 1 1993.07 6872)">5.0</text></g><g><text fill="#595959" font-family="Aptos Narrow,Aptos Narrow_MSFontService,sans-serif" font-weight="400" font-stretch="semi-condensed" font-size="41" transform="matrix(1 0 0 1 1993.07 6799)">6.0</text></g><g><text fill="#595959" font-family="Aptos Narrow,Aptos Narrow_MSFontService,sans-serif" font-weight="400" font-stretch="semi-condensed" font-size="41" transform="matrix(1 0 0 1 1993.07 6726)">7.0</text></g><g><text fill="#595959" font-family="Aptos Narrow,Aptos Narrow_MSFontService,sans-serif" font-weight="400" font-stretch="semi-condensed" font-size="41" transform="matrix(1 0 0 1 1993.07 6652)">8.0</text></g><g><text fill="#595959" font-family="Aptos Narrow,Aptos Narrow_MSFontService,sans-serif" font-weight="400" font-stretch="semi-condensed" font-size="41" transform="matrix(1 0 0 1 1993.07 6579)">9.0</text></g><g><text fill="#595959" font-family="Aptos Narrow,Aptos Narrow_MSFontService,sans-serif" font-weight="400" font-stretch="semi-condensed" font-size="41" transform="matrix(1 0 0 1 1972.17 6505)">10.0</text></g><g><text fill="#595959" font-family="Aptos Narrow,Aptos Narrow_MSFontService,sans-serif" font-weight="400" font-stretch="semi-condensed" font-size="41" transform="matrix(1 0 0 1 2185.85 7293)">2021-22</text></g><g><text fill="#595959" font-family="Aptos Narrow,Aptos Narrow_MSFontService,sans-serif" font-weight="400" font-stretch="semi-condensed" font-size="41" transform="matrix(1 0 0 1 2528.22 7293)">2022-23</text></g><g><text fill="#595959" font-family="Aptos Narrow,Aptos Narrow_MSFontService,sans-serif" font-weight="400" font-stretch="semi-condensed" font-size="41" transform="matrix(1 0 0 1 2870.58 7293)">2023-24</text></g><g><text fill="#595959" font-family="Aptos Narrow,Aptos Narrow_MSFontService,sans-serif" font-weight="400" font-stretch="semi-condensed" font-size="41" transform="matrix(1 0 0 1 3212.95 7293)">2024-25</text></g><g><text fill="#595959" font-family="Aptos Narrow,Aptos Narrow_MSFontService,sans-serif" font-weight="400" font-stretch="semi-condensed" font-size="46" transform="matrix(6.12323e-17 -1 1 6.12323e-17 1945.47 7174)">Quality of connection survey score</text></g><g><rect x="2482" y="7361" width="23" height="23" fill="#E97132"/></g><g><text fill="#595959" font-family="Aptos Narrow,Aptos Narrow_MSFontService,sans-serif" font-weight="400" font-stretch="semi-condensed" font-size="41" transform="matrix(1 0 0 1 2514.36 7384)">SPT</text></g><g><rect x="2607" y="7361" width="23" height="23" fill="#0F9ED5"/></g><g><text fill="#595959" font-family="Aptos Narrow,Aptos Narrow_MSFontService,sans-serif" font-weight="400" font-stretch="semi-condensed" font-size="41" transform="matrix(1 0 0 1 2639.7 7384)">NGET</text></g><g><rect x="2764" y="7361" width="22" height="23" fill="#4EA72E"/></g><g><text fill="#595959" font-family="Aptos Narrow,Aptos Narrow_MSFontService,sans-serif" font-weight="400" font-stretch="semi-condensed" font-size="41" transform="matrix(1 0 0 1 2796.08 7384)">SHET</text></g><rect x="1845.5" y="6443.5" width="1659" height="996" stroke="#D9D9D9" stroke-width="3.4375" stroke-linejoin="round" stroke-miterlimit="10" fill="none"/></g></svg>