<svg width="1662" height="991" xmlns="http://www.w3.org/2000/svg" xmlns:xlink="http://www.w3.org/1999/xlink" xml:space="preserve" overflow="hidden"><defs><clipPath id="clip0"><rect x="5311" y="1603" width="1662" height="991"/></clipPath></defs><g clip-path="url(#clip0)" transform="translate(-5311 -1603)"><rect x="5312" y="1604" width="1659" height="988" fill="#FFFFFF"/><g><path d="M5606.5 2260.57 6920.5 2260.57M5606.5 2139.57 6920.5 2139.57M5606.5 2017.57 6920.5 2017.57M5606.5 1896.56 6920.5 1896.56M5606.5 1775.56 6920.5 1775.56M5606.5 1654.5 6920.5 1654.5" stroke="#D9D9D9" stroke-width="3.4375" stroke-linejoin="round" stroke-miterlimit="10" fill="none"/></g><g><path d="M5669.19 2351.08 5726.19 2351.08 5726.19 2382 5669.19 2382ZM5998.2 2364.08 6055.2 2364.08 6055.2 2382 5998.2 2382ZM6326.21 2354.08 6384.21 2354.08 6384.21 2382 6326.21 2382ZM6655.22 2352.08 6712.22 2352.08 6712.22 2382 6655.22 2382Z" fill="#E97132"/></g><g><path d="M5742.19 1806.06 5799.19 1806.06 5799.19 2382 5742.19 2382ZM6071.2 1821.06 6128.2 1821.06 6128.2 2382 6071.2 2382ZM6399.21 1794.06 6456.21 1794.06 6456.21 2382 6399.21 2382ZM6728.22 1900.06 6785.22 1900.06 6785.22 2382 6728.22 2382Z" fill="#0F9ED5"/></g><g><path d="M5815.19 2377.08 5872.19 2377.08 5872.19 2382 5815.19 2382ZM6143.2 2370.08 6201.2 2370.08 6201.2 2382 6143.2 2382ZM6472.21 2375.08 6529.21 2375.08 6529.21 2382 6472.21 2382ZM6801.22 2377.08 6858.23 2377.08 6858.23 2382 6801.22 2382Z" fill="#4EA72E"/></g><g><path d="M5606.5 2381.5 6920.5 2381.5" stroke="#D9D9D9" stroke-width="3.4375" stroke-linejoin="round" stroke-miterlimit="10" fill="none" fill-rule="evenodd"/></g><g><text fill="#595959" font-family="Aptos Narrow,Aptos Narrow_MSFontService,sans-serif" font-weight="400" font-stretch="semi-condensed" font-size="41" transform="matrix(1 0 0 1 5495 2393)">0.00</text></g><g><text fill="#595959" font-family="Aptos Narrow,Aptos Narrow_MSFontService,sans-serif" font-weight="400" font-stretch="semi-condensed" font-size="41" transform="matrix(1 0 0 1 5495 2272)">0.05</text></g><g><text fill="#595959" font-family="Aptos Narrow,Aptos Narrow_MSFontService,sans-serif" font-weight="400" font-stretch="semi-condensed" font-size="41" transform="matrix(1 0 0 1 5495 2151)">0.10</text></g><g><text fill="#595959" font-family="Aptos Narrow,Aptos Narrow_MSFontService,sans-serif" font-weight="400" font-stretch="semi-condensed" font-size="41" transform="matrix(1 0 0 1 5495 2029)">0.15</text></g><g><text fill="#595959" font-family="Aptos Narrow,Aptos Narrow_MSFontService,sans-serif" font-weight="400" font-stretch="semi-condensed" font-size="41" transform="matrix(1 0 0 1 5495 1908)">0.20</text></g><g><text fill="#595959" font-family="Aptos Narrow,Aptos Narrow_MSFontService,sans-serif" font-weight="400" font-stretch="semi-condensed" font-size="41" transform="matrix(1 0 0 1 5495 1787)">0.25</text></g><g><text fill="#595959" font-family="Aptos Narrow,Aptos Narrow_MSFontService,sans-serif" font-weight="400" font-stretch="semi-condensed" font-size="41" transform="matrix(1 0 0 1 5495 1666)">0.30</text></g><g><text fill="#595959" font-family="Aptos Narrow,Aptos Narrow_MSFontService,sans-serif" font-weight="400" font-stretch="semi-condensed" font-size="41" transform="matrix(1 0 0 1 5701.8 2446)">2021-22</text></g><g><text fill="#595959" font-family="Aptos Narrow,Aptos Narrow_MSFontService,sans-serif" font-weight="400" font-stretch="semi-condensed" font-size="41" transform="matrix(1 0 0 1 6030.4 2446)">2022-23</text></g><g><text fill="#595959" font-family="Aptos Narrow,Aptos Narrow_MSFontService,sans-serif" font-weight="400" font-stretch="semi-condensed" font-size="41" transform="matrix(1 0 0 1 6359.01 2446)">2023-24</text></g><g><text fill="#595959" font-family="Aptos Narrow,Aptos Narrow_MSFontService,sans-serif" font-weight="400" font-stretch="semi-condensed" font-size="41" transform="matrix(1 0 0 1 6687.61 2446)">2024-25</text></g><g><text fill="#595959" font-family="Aptos Narrow,Aptos Narrow_MSFontService,sans-serif" font-weight="400" font-stretch="semi-condensed" font-size="46" transform="matrix(6.12323e-17 -1 1 6.12323e-17 5412.37 2355)">Emissions due to insulating gas leaks </text></g><g><text fill="#595959" font-family="Aptos Narrow,Aptos Narrow_MSFontService,sans-serif" font-weight="400" font-stretch="semi-condensed" font-size="46" transform="matrix(6.12323e-17 -1 1 6.12323e-17 5468.37 2104)">(MtCO</text></g><g><text fill="#595959" font-family="Aptos Narrow,Aptos Narrow_MSFontService,sans-serif" font-weight="400" font-stretch="semi-condensed" font-size="31" transform="matrix(6.12323e-17 -1 1 6.12323e-17 5478.36 1984)">2</text></g><g><text fill="#595959" font-family="Aptos Narrow,Aptos Narrow_MSFontService,sans-serif" font-weight="400" font-stretch="semi-condensed" font-size="46" transform="matrix(6.12323e-17 -1 1 6.12323e-17 5468.37 1968)">e)</text></g><g><rect x="5949" y="2515" width="23" height="23" fill="#E97132"/></g><g><text fill="#595959" font-family="Aptos Narrow,Aptos Narrow_MSFontService,sans-serif" font-weight="400" font-stretch="semi-condensed" font-size="41" transform="matrix(1 0 0 1 5981.69 2538)">SPT</text></g><g><rect x="6075" y="2515" width="22" height="23" fill="#0F9ED5"/></g><g><text fill="#595959" font-family="Aptos Narrow,Aptos Narrow_MSFontService,sans-serif" font-weight="400" font-stretch="semi-condensed" font-size="41" transform="matrix(1 0 0 1 6107.04 2538)">NGET</text></g><g><rect x="6231" y="2515" width="22.9995" height="23" fill="#4EA72E"/></g><g><text fill="#595959" font-family="Aptos Narrow,Aptos Narrow_MSFontService,sans-serif" font-weight="400" font-stretch="semi-condensed" font-size="41" transform="matrix(1 0 0 1 6263.42 2538)">SHET</text></g><rect x="5312.5" y="1604.5" width="1659" height="988" stroke="#D9D9D9" stroke-width="3.4375" stroke-linejoin="round" stroke-miterlimit="10" fill="none"/></g></svg>