<svg width="1663" height="999" xmlns="http://www.w3.org/2000/svg" xmlns:xlink="http://www.w3.org/1999/xlink" xml:space="preserve" overflow="hidden"><defs><clipPath id="clip0"><rect x="1750" y="2361" width="1663" height="999"/></clipPath></defs><g clip-path="url(#clip0)" transform="translate(-1750 -2361)"><rect x="1751" y="2362" width="1660" height="996" fill="#FFFFFF"/><g><path d="M2010.5 3055.6 3360.5 3055.6M2010.5 2963.6 3360.5 2963.6M2010.5 2871.59 3360.5 2871.59M2010.5 2780.59 3360.5 2780.59M2010.5 2688.59 3360.5 2688.59M2010.5 2596.59 3360.5 2596.59M2010.5 2504.58 3360.5 2504.58M2010.5 2412.5 3360.5 2412.5" stroke="#D9D9D9" stroke-width="3.4375" stroke-linejoin="round" stroke-miterlimit="10" fill="none"/></g><g><path d="M2075.07 2413 2134.07 2413 2134.07 3147 2075.07 3147ZM2412.08 2588.08 2471.08 2588.08 2471.08 3147 2412.08 3147ZM2750.09 2465.08 2809.09 2465.08 2809.09 3147 2750.09 3147ZM3087.1 2502.08 3146.1 2502.08 3146.1 3147 3087.1 3147Z" fill="#E97132"/></g><g><path d="M2150.07 2998.1 2208.07 2998.1 2208.07 3147 2150.07 3147ZM2487.08 2809.09 2546.08 2809.09 2546.08 3147 2487.08 3147ZM2825.09 2453.08 2883.09 2453.08 2883.09 3147 2825.09 3147ZM3162.1 2648.09 3221.11 2648.09 3221.11 3147 3162.1 3147Z" fill="#0F9ED5"/></g><g><path d="M2224.07 2413 2283.07 2413 2283.07 3147 2224.07 3147ZM2562.08 2413 2621.09 2413 2621.09 3147 2562.08 3147ZM2899.1 2413 2958.1 2413 2958.1 3147 2899.1 3147ZM3237.11 2413 3296.11 2413 3296.11 3147 3237.11 3147Z" fill="#4EA72E"/></g><g><path d="M2010.5 3147.5 3360.5 3147.5" stroke="#D9D9D9" stroke-width="3.4375" stroke-linejoin="round" stroke-miterlimit="10" fill="none" fill-rule="evenodd"/></g><g><text fill="#595959" font-family="Aptos Narrow,Aptos Narrow_MSFontService,sans-serif" font-weight="400" font-stretch="semi-condensed" font-size="41" transform="matrix(1 0 0 1 1899.06 3159)">96%</text></g><g><text fill="#595959" font-family="Aptos Narrow,Aptos Narrow_MSFontService,sans-serif" font-weight="400" font-stretch="semi-condensed" font-size="41" transform="matrix(1 0 0 1 1899.06 3067)">97%</text></g><g><text fill="#595959" font-family="Aptos Narrow,Aptos Narrow_MSFontService,sans-serif" font-weight="400" font-stretch="semi-condensed" font-size="41" transform="matrix(1 0 0 1 1899.06 2975)">97%</text></g><g><text fill="#595959" font-family="Aptos Narrow,Aptos Narrow_MSFontService,sans-serif" font-weight="400" font-stretch="semi-condensed" font-size="41" transform="matrix(1 0 0 1 1899.06 2884)">98%</text></g><g><text fill="#595959" font-family="Aptos Narrow,Aptos Narrow_MSFontService,sans-serif" font-weight="400" font-stretch="semi-condensed" font-size="41" transform="matrix(1 0 0 1 1899.06 2792)">98%</text></g><g><text fill="#595959" font-family="Aptos Narrow,Aptos Narrow_MSFontService,sans-serif" font-weight="400" font-stretch="semi-condensed" font-size="41" transform="matrix(1 0 0 1 1899.06 2700)">99%</text></g><g><text fill="#595959" font-family="Aptos Narrow,Aptos Narrow_MSFontService,sans-serif" font-weight="400" font-stretch="semi-condensed" font-size="41" transform="matrix(1 0 0 1 1899.06 2608)">99%</text></g><g><text fill="#595959" font-family="Aptos Narrow,Aptos Narrow_MSFontService,sans-serif" font-weight="400" font-stretch="semi-condensed" font-size="41" transform="matrix(1 0 0 1 1878.16 2516)">100%</text></g><g><text fill="#595959" font-family="Aptos Narrow,Aptos Narrow_MSFontService,sans-serif" font-weight="400" font-stretch="semi-condensed" font-size="41" transform="matrix(1 0 0 1 1878.16 2424)">100%</text></g><g><text fill="#595959" font-family="Aptos Narrow,Aptos Narrow_MSFontService,sans-serif" font-weight="400" font-stretch="semi-condensed" font-size="41" transform="matrix(1 0 0 1 2110.06 3212)">2021-22</text></g><g><text fill="#595959" font-family="Aptos Narrow,Aptos Narrow_MSFontService,sans-serif" font-weight="400" font-stretch="semi-condensed" font-size="41" transform="matrix(1 0 0 1 2447.56 3212)">2022-23</text></g><g><text fill="#595959" font-family="Aptos Narrow,Aptos Narrow_MSFontService,sans-serif" font-weight="400" font-stretch="semi-condensed" font-size="41" transform="matrix(1 0 0 1 2785.06 3212)">2023-24</text></g><g><text fill="#595959" font-family="Aptos Narrow,Aptos Narrow_MSFontService,sans-serif" font-weight="400" font-stretch="semi-condensed" font-size="41" transform="matrix(1 0 0 1 3122.57 3212)">2024-25</text></g><g><text fill="#595959" font-family="Aptos Narrow,Aptos Narrow_MSFontService,sans-serif" font-weight="400" font-stretch="semi-condensed" font-size="46" transform="matrix(6.12323e-17 -1 1 6.12323e-17 1851.47 3105)">Connection offers delivered on time</text></g><g><rect x="2389" y="3281" width="22" height="22" fill="#E97132"/></g><g><text fill="#595959" font-family="Aptos Narrow,Aptos Narrow_MSFontService,sans-serif" font-weight="400" font-stretch="semi-condensed" font-size="41" transform="matrix(1 0 0 1 2420.95 3304)">SPT</text></g><g><rect x="2514" y="3281" width="23" height="22" fill="#0F9ED5"/></g><g><text fill="#595959" font-family="Aptos Narrow,Aptos Narrow_MSFontService,sans-serif" font-weight="400" font-stretch="semi-condensed" font-size="41" transform="matrix(1 0 0 1 2546.29 3304)">NGET</text></g><g><rect x="2670" y="3281" width="23" height="22" fill="#4EA72E"/></g><g><text fill="#595959" font-family="Aptos Narrow,Aptos Narrow_MSFontService,sans-serif" font-weight="400" font-stretch="semi-condensed" font-size="41" transform="matrix(1 0 0 1 2702.67 3304)">SHET</text></g><rect x="1751.5" y="2362.5" width="1660" height="996" stroke="#D9D9D9" stroke-width="3.4375" stroke-linejoin="round" stroke-miterlimit="10" fill="none"/></g></svg>